<mxfile host="Electron" modified="2024-05-01T13:37:58.663Z" agent="Mozilla/5.0 (Windows NT 10.0; Win64; x64) AppleWebKit/537.36 (KHTML, like Gecko) draw.io/22.1.2 Chrome/114.0.5735.289 Electron/25.9.4 Safari/537.36" etag="IiqG0OQCJgv_-vTrpUi_" version="22.1.2" type="device">
  <diagram name="Seite-1" id="c-jGSA3GosfZhbWg664S">
    <mxGraphModel dx="1036" dy="606" grid="1" gridSize="10" guides="1" tooltips="1" connect="1" arrows="1" fold="1" page="1" pageScale="1" pageWidth="1169" pageHeight="827" math="0" shadow="0">
      <root>
        <mxCell id="0" />
        <mxCell id="1" parent="0" />
        <mxCell id="_LWuVxKTcbMjPaRc8T1a-2" value="a_02_03_01" style="shape=umlFrame;whiteSpace=wrap;html=1;pointerEvents=0;recursiveResize=0;container=1;collapsible=0;width=110;height=20;sketch=1;curveFitting=1;jiggle=2;" parent="1" vertex="1">
          <mxGeometry x="130" y="20" width="910" height="680" as="geometry" />
        </mxCell>
        <mxCell id="_LWuVxKTcbMjPaRc8T1a-25" value="Condition: Artikel auf einziger Seite &gt; 1&#xa;extension point: platzierung" style="shape=note;size=15;spacingLeft=5;align=left;whiteSpace=wrap;sketch=1;curveFitting=1;jiggle=2;" parent="_LWuVxKTcbMjPaRc8T1a-2" vertex="1">
          <mxGeometry y="160" width="230" height="30" as="geometry" />
        </mxCell>
        <mxCell id="_LWuVxKTcbMjPaRc8T1a-55" value="&lt;span style=&quot;font-weight: normal;&quot;&gt;Zuschneidung der Fotos&lt;/span&gt;" style="shape=ellipse;html=1;strokeWidth=1;fontStyle=1;whiteSpace=wrap;align=center;perimeter=ellipsePerimeter;sketch=1;curveFitting=1;jiggle=2;" parent="_LWuVxKTcbMjPaRc8T1a-2" vertex="1">
          <mxGeometry x="370" y="520" width="120" height="60" as="geometry" />
        </mxCell>
        <mxCell id="_LWuVxKTcbMjPaRc8T1a-11" style="rounded=0;orthogonalLoop=1;jettySize=auto;html=1;endArrow=none;endFill=0;sketch=1;curveFitting=1;jiggle=2;" parent="1" source="_LWuVxKTcbMjPaRc8T1a-3" target="_LWuVxKTcbMjPaRc8T1a-9" edge="1">
          <mxGeometry relative="1" as="geometry" />
        </mxCell>
        <mxCell id="_LWuVxKTcbMjPaRc8T1a-31" style="rounded=0;orthogonalLoop=1;jettySize=auto;html=1;endArrow=none;endFill=0;sketch=1;curveFitting=1;jiggle=2;" parent="1" source="_LWuVxKTcbMjPaRc8T1a-3" target="_LWuVxKTcbMjPaRc8T1a-28" edge="1">
          <mxGeometry relative="1" as="geometry" />
        </mxCell>
        <mxCell id="_LWuVxKTcbMjPaRc8T1a-3" value="&lt;font style=&quot;font-size: 10px;&quot;&gt;Redakteur&lt;/font&gt;" style="shape=umlActor;html=1;verticalLabelPosition=bottom;verticalAlign=top;align=center;sketch=1;curveFitting=1;jiggle=2;" parent="1" vertex="1">
          <mxGeometry x="40" y="80" width="30" height="60" as="geometry" />
        </mxCell>
        <mxCell id="_LWuVxKTcbMjPaRc8T1a-13" style="rounded=0;orthogonalLoop=1;jettySize=auto;html=1;endArrow=none;endFill=0;sketch=1;curveFitting=1;jiggle=2;" parent="1" source="_LWuVxKTcbMjPaRc8T1a-5" target="_LWuVxKTcbMjPaRc8T1a-23" edge="1">
          <mxGeometry relative="1" as="geometry">
            <mxPoint x="360.90133802020273" y="112.46624005152955" as="targetPoint" />
          </mxGeometry>
        </mxCell>
        <mxCell id="_LWuVxKTcbMjPaRc8T1a-49" style="rounded=0;orthogonalLoop=1;jettySize=auto;html=1;sketch=1;curveFitting=1;jiggle=2;endArrow=none;endFill=0;" parent="1" source="_LWuVxKTcbMjPaRc8T1a-5" target="_LWuVxKTcbMjPaRc8T1a-42" edge="1">
          <mxGeometry relative="1" as="geometry" />
        </mxCell>
        <mxCell id="_LWuVxKTcbMjPaRc8T1a-63" style="rounded=0;orthogonalLoop=1;jettySize=auto;html=1;sketch=1;curveFitting=1;jiggle=2;endArrow=none;endFill=0;" parent="1" source="_LWuVxKTcbMjPaRc8T1a-5" target="_LWuVxKTcbMjPaRc8T1a-70" edge="1">
          <mxGeometry relative="1" as="geometry">
            <mxPoint x="907.5720510692618" y="322.18788085245546" as="targetPoint" />
          </mxGeometry>
        </mxCell>
        <mxCell id="_LWuVxKTcbMjPaRc8T1a-5" value="&lt;font style=&quot;font-size: 10px;&quot;&gt;Journalist&lt;/font&gt;" style="shape=umlActor;html=1;verticalLabelPosition=bottom;verticalAlign=top;align=center;sketch=1;curveFitting=1;jiggle=2;" parent="1" vertex="1">
          <mxGeometry x="1130" y="354" width="30" height="60" as="geometry" />
        </mxCell>
        <mxCell id="_LWuVxKTcbMjPaRc8T1a-57" style="rounded=0;orthogonalLoop=1;jettySize=auto;html=1;sketch=1;curveFitting=1;jiggle=2;endArrow=none;endFill=0;" parent="1" source="_LWuVxKTcbMjPaRc8T1a-6" target="_LWuVxKTcbMjPaRc8T1a-55" edge="1">
          <mxGeometry relative="1" as="geometry" />
        </mxCell>
        <mxCell id="_LWuVxKTcbMjPaRc8T1a-64" style="rounded=0;orthogonalLoop=1;jettySize=auto;html=1;endArrow=none;endFill=0;sketch=1;curveFitting=1;jiggle=2;" parent="1" source="_LWuVxKTcbMjPaRc8T1a-6" target="_LWuVxKTcbMjPaRc8T1a-70" edge="1">
          <mxGeometry relative="1" as="geometry">
            <mxPoint x="886.4671310043191" y="327.94897389948073" as="targetPoint" />
          </mxGeometry>
        </mxCell>
        <mxCell id="_LWuVxKTcbMjPaRc8T1a-77" style="rounded=0;orthogonalLoop=1;jettySize=auto;html=1;sketch=1;curveFitting=1;jiggle=2;endArrow=none;endFill=0;" parent="1" source="_LWuVxKTcbMjPaRc8T1a-6" target="_LWuVxKTcbMjPaRc8T1a-75" edge="1">
          <mxGeometry relative="1" as="geometry" />
        </mxCell>
        <mxCell id="_LWuVxKTcbMjPaRc8T1a-6" value="&lt;font style=&quot;font-size: 10px;&quot;&gt;Fotograf&lt;/font&gt;" style="shape=umlActor;html=1;verticalLabelPosition=bottom;verticalAlign=top;align=center;sketch=1;curveFitting=1;jiggle=2;" parent="1" vertex="1">
          <mxGeometry x="1050" y="420" width="30" height="60" as="geometry" />
        </mxCell>
        <mxCell id="_LWuVxKTcbMjPaRc8T1a-7" value="&lt;font style=&quot;font-size: 10px;&quot;&gt;Grafikdesigner&lt;/font&gt;" style="shape=umlActor;html=1;verticalLabelPosition=bottom;verticalAlign=top;align=center;sketch=1;curveFitting=1;jiggle=2;" parent="1" vertex="1">
          <mxGeometry x="40" y="290" width="30" height="60" as="geometry" />
        </mxCell>
        <mxCell id="_LWuVxKTcbMjPaRc8T1a-37" style="rounded=0;orthogonalLoop=1;jettySize=auto;html=1;entryX=0;entryY=1;entryDx=0;entryDy=0;sketch=1;curveFitting=1;jiggle=2;endArrow=none;endFill=0;" parent="1" source="_LWuVxKTcbMjPaRc8T1a-8" target="_LWuVxKTcbMjPaRc8T1a-36" edge="1">
          <mxGeometry relative="1" as="geometry" />
        </mxCell>
        <mxCell id="_LWuVxKTcbMjPaRc8T1a-8" value="&lt;font style=&quot;font-size: 10px;&quot;&gt;Druckerei&lt;/font&gt;" style="shape=umlActor;html=1;verticalLabelPosition=bottom;verticalAlign=top;align=center;sketch=1;curveFitting=1;jiggle=2;" parent="1" vertex="1">
          <mxGeometry x="1100" y="60" width="30" height="60" as="geometry" />
        </mxCell>
        <mxCell id="_LWuVxKTcbMjPaRc8T1a-9" value="&lt;span style=&quot;font-weight: normal;&quot;&gt;Sitzung&lt;/span&gt;" style="shape=ellipse;html=1;strokeWidth=1;fontStyle=1;whiteSpace=wrap;align=center;perimeter=ellipsePerimeter;sketch=1;curveFitting=1;jiggle=2;" parent="1" vertex="1">
          <mxGeometry x="180" y="80" width="100" height="40" as="geometry" />
        </mxCell>
        <mxCell id="_LWuVxKTcbMjPaRc8T1a-12" value="&amp;lt;&amp;lt;include&amp;gt;&amp;gt;" style="edgeStyle=none;html=1;endArrow=open;verticalAlign=bottom;dashed=1;labelBackgroundColor=none;rounded=0;sketch=1;curveFitting=1;jiggle=2;" parent="1" source="_LWuVxKTcbMjPaRc8T1a-9" target="_LWuVxKTcbMjPaRc8T1a-23" edge="1">
          <mxGeometry width="160" relative="1" as="geometry">
            <mxPoint x="350" y="180" as="sourcePoint" />
            <mxPoint x="350" y="100" as="targetPoint" />
          </mxGeometry>
        </mxCell>
        <mxCell id="_LWuVxKTcbMjPaRc8T1a-14" value="Condition: Redakteur == zufrieden&#xa;extension point: artikel_bearbeiten" style="shape=note;size=15;spacingLeft=5;align=left;whiteSpace=wrap;sketch=1;curveFitting=1;jiggle=2;" parent="1" vertex="1">
          <mxGeometry x="480" y="244" width="205" height="40" as="geometry" />
        </mxCell>
        <mxCell id="_LWuVxKTcbMjPaRc8T1a-15" value="&amp;lt;&amp;lt;extend&amp;gt;&amp;gt;" style="align=right;html=1;verticalAlign=bottom;rounded=0;labelBackgroundColor=none;endArrow=open;endSize=12;dashed=1;exitX=0.5;exitY=0;exitDx=0;exitDy=0;sketch=1;curveFitting=1;jiggle=2;" parent="1" source="_LWuVxKTcbMjPaRc8T1a-17" target="_LWuVxKTcbMjPaRc8T1a-23" edge="1">
          <mxGeometry x="0.2085" y="-65" relative="1" as="geometry">
            <mxPoint x="461.1111111111111" y="180" as="targetPoint" />
            <mxPoint x="610" y="290" as="sourcePoint" />
            <mxPoint as="offset" />
          </mxGeometry>
        </mxCell>
        <mxCell id="_LWuVxKTcbMjPaRc8T1a-16" value="" style="edgeStyle=none;html=1;endArrow=none;rounded=0;labelBackgroundColor=none;dashed=1;sketch=1;curveFitting=1;jiggle=2;" parent="1" source="_LWuVxKTcbMjPaRc8T1a-14" edge="1">
          <mxGeometry relative="1" as="geometry">
            <mxPoint x="420" y="270" as="targetPoint" />
          </mxGeometry>
        </mxCell>
        <mxCell id="_LWuVxKTcbMjPaRc8T1a-17" value="&lt;span style=&quot;font-weight: normal;&quot;&gt;Bearbeitung der Artikel&lt;/span&gt;" style="shape=ellipse;html=1;strokeWidth=1;fontStyle=1;whiteSpace=wrap;align=center;perimeter=ellipsePerimeter;sketch=1;curveFitting=1;jiggle=2;" parent="1" vertex="1">
          <mxGeometry x="370" y="299" width="100" height="40" as="geometry" />
        </mxCell>
        <mxCell id="_LWuVxKTcbMjPaRc8T1a-23" value="&lt;br&gt;extension points: artikel_bearbeiten, platzierung, sendung" style="html=1;shape=mxgraph.sysml.useCaseExtPt;whiteSpace=wrap;align=center;sketch=1;curveFitting=1;jiggle=2;" parent="1" vertex="1">
          <mxGeometry x="350" y="50" width="160" height="80" as="geometry" />
        </mxCell>
        <mxCell id="_LWuVxKTcbMjPaRc8T1a-24" value="&lt;span style=&quot;font-weight: normal;&quot;&gt;Vorstellung der Artikel&lt;/span&gt;" style="resizable=0;html=1;verticalAlign=middle;align=center;labelBackgroundColor=none;fontStyle=1;" parent="_LWuVxKTcbMjPaRc8T1a-23" connectable="0" vertex="1">
          <mxGeometry x="80" y="17" as="geometry" />
        </mxCell>
        <mxCell id="_LWuVxKTcbMjPaRc8T1a-26" value="&amp;lt;&amp;lt;extend&amp;gt;&amp;gt;" style="align=right;html=1;verticalAlign=bottom;rounded=0;labelBackgroundColor=none;endArrow=open;endSize=12;dashed=1;exitX=0.5;exitY=0;exitDx=0;exitDy=0;sketch=1;curveFitting=1;jiggle=2;" parent="1" source="_LWuVxKTcbMjPaRc8T1a-28" target="_LWuVxKTcbMjPaRc8T1a-23" edge="1">
          <mxGeometry relative="1" as="geometry">
            <mxPoint x="292" y="275" as="targetPoint" />
            <mxPoint x="485" y="385" as="sourcePoint" />
          </mxGeometry>
        </mxCell>
        <mxCell id="_LWuVxKTcbMjPaRc8T1a-27" value="" style="edgeStyle=none;html=1;endArrow=none;rounded=0;labelBackgroundColor=none;dashed=1;sketch=1;curveFitting=1;jiggle=2;" parent="1" source="_LWuVxKTcbMjPaRc8T1a-25" edge="1">
          <mxGeometry relative="1" as="geometry">
            <mxPoint x="370" y="200" as="targetPoint" />
          </mxGeometry>
        </mxCell>
        <mxCell id="_LWuVxKTcbMjPaRc8T1a-30" value="" style="rounded=0;orthogonalLoop=1;jettySize=auto;html=1;endArrow=none;endFill=0;sketch=1;curveFitting=1;jiggle=2;" parent="1" source="_LWuVxKTcbMjPaRc8T1a-7" target="_LWuVxKTcbMjPaRc8T1a-17" edge="1">
          <mxGeometry relative="1" as="geometry">
            <mxPoint x="70" y="316" as="sourcePoint" />
            <mxPoint x="459" y="211" as="targetPoint" />
          </mxGeometry>
        </mxCell>
        <mxCell id="_LWuVxKTcbMjPaRc8T1a-28" value="&lt;span style=&quot;font-weight: normal;&quot;&gt;Platzierung der Artikel&lt;/span&gt;" style="shape=ellipse;html=1;strokeWidth=1;fontStyle=1;whiteSpace=wrap;align=center;perimeter=ellipsePerimeter;sketch=1;curveFitting=1;jiggle=2;" parent="1" vertex="1">
          <mxGeometry x="310" y="220" width="100" height="40" as="geometry" />
        </mxCell>
        <mxCell id="_LWuVxKTcbMjPaRc8T1a-33" value="Condition: Seitengestaltung == abgeschlossen&#xa;extension point: sendung" style="shape=note;size=15;spacingLeft=5;align=left;whiteSpace=wrap;sketch=1;curveFitting=1;jiggle=2;" parent="1" vertex="1">
          <mxGeometry x="630" y="80" width="205" height="40" as="geometry" />
        </mxCell>
        <mxCell id="_LWuVxKTcbMjPaRc8T1a-34" value="&amp;lt;&amp;lt;extend&amp;gt;&amp;gt;" style="align=right;html=1;verticalAlign=bottom;rounded=0;labelBackgroundColor=none;endArrow=open;endSize=12;dashed=1;exitX=0.5;exitY=0;exitDx=0;exitDy=0;sketch=1;curveFitting=1;jiggle=2;" parent="1" source="_LWuVxKTcbMjPaRc8T1a-36" target="_LWuVxKTcbMjPaRc8T1a-23" edge="1">
          <mxGeometry relative="1" as="geometry">
            <mxPoint x="551" y="80" as="targetPoint" />
            <mxPoint x="700" y="190" as="sourcePoint" />
          </mxGeometry>
        </mxCell>
        <mxCell id="_LWuVxKTcbMjPaRc8T1a-35" value="" style="edgeStyle=none;html=1;endArrow=none;rounded=0;labelBackgroundColor=none;dashed=1;sketch=1;curveFitting=1;jiggle=2;" parent="1" source="_LWuVxKTcbMjPaRc8T1a-33" edge="1">
          <mxGeometry relative="1" as="geometry">
            <mxPoint x="560" y="120" as="targetPoint" />
          </mxGeometry>
        </mxCell>
        <mxCell id="_LWuVxKTcbMjPaRc8T1a-36" value="&lt;span style=&quot;font-weight: normal;&quot;&gt;Sendung an die Druckerei&lt;/span&gt;" style="shape=ellipse;html=1;strokeWidth=1;fontStyle=1;whiteSpace=wrap;align=center;perimeter=ellipsePerimeter;sketch=1;curveFitting=1;jiggle=2;" parent="1" vertex="1">
          <mxGeometry x="540" y="130" width="100" height="40" as="geometry" />
        </mxCell>
        <mxCell id="_LWuVxKTcbMjPaRc8T1a-38" value="" style="edgeStyle=none;html=1;endArrow=block;endFill=0;endSize=12;verticalAlign=bottom;rounded=0;sketch=1;curveFitting=1;jiggle=2;" parent="1" source="_LWuVxKTcbMjPaRc8T1a-47" target="_LWuVxKTcbMjPaRc8T1a-17" edge="1">
          <mxGeometry width="160" relative="1" as="geometry">
            <mxPoint x="463.2163087735039" y="384.71133314137273" as="sourcePoint" />
            <mxPoint x="730" y="520" as="targetPoint" />
          </mxGeometry>
        </mxCell>
        <mxCell id="_LWuVxKTcbMjPaRc8T1a-39" value="Condition: Text == zu lang&#xa;extension point: kürzung" style="shape=note;size=0;spacingLeft=5;align=left;whiteSpace=wrap;sketch=1;curveFitting=1;jiggle=2;" parent="1" vertex="1">
          <mxGeometry x="130" y="480" width="205" height="40" as="geometry" />
        </mxCell>
        <mxCell id="_LWuVxKTcbMjPaRc8T1a-40" value="&amp;lt;&amp;lt;extend&amp;gt;&amp;gt;" style="align=right;html=1;verticalAlign=bottom;rounded=0;labelBackgroundColor=none;endArrow=open;endSize=12;dashed=1;exitX=0.5;exitY=0;exitDx=0;exitDy=0;sketch=1;curveFitting=1;jiggle=2;" parent="1" source="_LWuVxKTcbMjPaRc8T1a-42" target="_LWuVxKTcbMjPaRc8T1a-47" edge="1">
          <mxGeometry x="0.5436" y="-46" relative="1" as="geometry">
            <mxPoint x="443.8969325498913" y="560.0043760127651" as="targetPoint" />
            <mxPoint x="455.24" y="657.0699999999999" as="sourcePoint" />
            <mxPoint as="offset" />
          </mxGeometry>
        </mxCell>
        <mxCell id="_LWuVxKTcbMjPaRc8T1a-41" value="" style="edgeStyle=none;html=1;endArrow=none;rounded=0;labelBackgroundColor=none;dashed=1;sketch=1;curveFitting=1;jiggle=2;" parent="1" source="_LWuVxKTcbMjPaRc8T1a-39" edge="1">
          <mxGeometry relative="1" as="geometry">
            <mxPoint x="350" y="520" as="targetPoint" />
          </mxGeometry>
        </mxCell>
        <mxCell id="_LWuVxKTcbMjPaRc8T1a-42" value="&lt;span style=&quot;font-weight: normal;&quot;&gt;Kürzung der Texte&lt;/span&gt;" style="shape=ellipse;html=1;strokeWidth=1;fontStyle=1;whiteSpace=wrap;align=center;perimeter=ellipsePerimeter;sketch=1;curveFitting=1;jiggle=2;" parent="1" vertex="1">
          <mxGeometry x="290" y="540" width="100" height="40" as="geometry" />
        </mxCell>
        <mxCell id="_LWuVxKTcbMjPaRc8T1a-47" value="&lt;br&gt;extension points:&amp;nbsp;kürzung&lt;br&gt;&amp;nbsp;" style="html=1;shape=mxgraph.sysml.useCaseExtPt;whiteSpace=wrap;align=center;sketch=1;curveFitting=1;jiggle=2;" parent="1" vertex="1">
          <mxGeometry x="320" y="390" width="160" height="80" as="geometry" />
        </mxCell>
        <mxCell id="_LWuVxKTcbMjPaRc8T1a-48" value="&lt;span style=&quot;font-weight: normal;&quot;&gt;Kürzung der Texte&lt;/span&gt;" style="resizable=0;html=1;verticalAlign=middle;align=center;labelBackgroundColor=none;fontStyle=1;" parent="_LWuVxKTcbMjPaRc8T1a-47" connectable="0" vertex="1">
          <mxGeometry x="80" y="17" as="geometry" />
        </mxCell>
        <mxCell id="_LWuVxKTcbMjPaRc8T1a-50" value="&lt;br&gt;extension points:&amp;nbsp;Zuschneidung&lt;br&gt;&amp;nbsp;" style="html=1;shape=mxgraph.sysml.useCaseExtPt;whiteSpace=wrap;align=center;sketch=1;curveFitting=1;jiggle=2;" parent="1" vertex="1">
          <mxGeometry x="540" y="390" width="160" height="80" as="geometry" />
        </mxCell>
        <mxCell id="_LWuVxKTcbMjPaRc8T1a-51" value="&lt;span style=&quot;font-weight: normal;&quot;&gt;Zuscheidung der Fotos&lt;/span&gt;" style="resizable=0;html=1;verticalAlign=middle;align=center;labelBackgroundColor=none;fontStyle=1;" parent="_LWuVxKTcbMjPaRc8T1a-50" connectable="0" vertex="1">
          <mxGeometry x="80" y="17" as="geometry">
            <mxPoint x="-2" y="1" as="offset" />
          </mxGeometry>
        </mxCell>
        <mxCell id="_LWuVxKTcbMjPaRc8T1a-52" value="Condition: Fotos == zu groß&#xa;extension point: zuschneidung" style="shape=note;size=0;spacingLeft=5;align=left;whiteSpace=wrap;sketch=1;curveFitting=1;jiggle=2;" parent="1" vertex="1">
          <mxGeometry x="650" y="500" width="205" height="40" as="geometry" />
        </mxCell>
        <mxCell id="_LWuVxKTcbMjPaRc8T1a-53" value="&amp;lt;&amp;lt;extend&amp;gt;&amp;gt;" style="align=right;html=1;verticalAlign=bottom;rounded=0;labelBackgroundColor=none;endArrow=open;endSize=12;dashed=1;exitX=0.5;exitY=0;exitDx=0;exitDy=0;sketch=1;curveFitting=1;jiggle=2;" parent="1" source="_LWuVxKTcbMjPaRc8T1a-55" target="_LWuVxKTcbMjPaRc8T1a-50" edge="1">
          <mxGeometry x="-0.0744" y="-6" relative="1" as="geometry">
            <mxPoint x="722" y="500" as="targetPoint" />
            <mxPoint x="805.24" y="687.0699999999999" as="sourcePoint" />
            <mxPoint as="offset" />
          </mxGeometry>
        </mxCell>
        <mxCell id="_LWuVxKTcbMjPaRc8T1a-54" value="" style="edgeStyle=none;html=1;endArrow=none;rounded=0;labelBackgroundColor=none;dashed=1;sketch=1;curveFitting=1;jiggle=2;" parent="1" source="_LWuVxKTcbMjPaRc8T1a-52" edge="1">
          <mxGeometry relative="1" as="geometry">
            <mxPoint x="580" y="520" as="targetPoint" />
          </mxGeometry>
        </mxCell>
        <mxCell id="_LWuVxKTcbMjPaRc8T1a-56" value="" style="edgeStyle=none;html=1;endArrow=block;endFill=0;endSize=12;verticalAlign=bottom;rounded=0;sketch=1;curveFitting=1;jiggle=2;" parent="1" source="_LWuVxKTcbMjPaRc8T1a-50" target="_LWuVxKTcbMjPaRc8T1a-17" edge="1">
          <mxGeometry width="160" relative="1" as="geometry">
            <mxPoint x="679.8199999999999" y="390" as="sourcePoint" />
            <mxPoint x="729.8199999999999" y="339" as="targetPoint" />
          </mxGeometry>
        </mxCell>
        <mxCell id="_LWuVxKTcbMjPaRc8T1a-58" value="&lt;font style=&quot;font-size: 10px;&quot;&gt;Einsatz-Team&lt;/font&gt;" style="shape=umlActor;html=1;verticalLabelPosition=bottom;verticalAlign=top;align=center;sketch=1;curveFitting=1;jiggle=2;" parent="1" vertex="1">
          <mxGeometry x="1090" y="170" width="30" height="60" as="geometry" />
        </mxCell>
        <mxCell id="_LWuVxKTcbMjPaRc8T1a-59" value="" style="edgeStyle=none;html=1;endArrow=block;endFill=0;endSize=12;verticalAlign=bottom;rounded=0;exitX=0.5;exitY=0;exitDx=0;exitDy=0;exitPerimeter=0;" parent="1" source="_LWuVxKTcbMjPaRc8T1a-6" edge="1">
          <mxGeometry width="160" relative="1" as="geometry">
            <mxPoint x="1070" y="390" as="sourcePoint" />
            <mxPoint x="1090" y="260" as="targetPoint" />
          </mxGeometry>
        </mxCell>
        <mxCell id="_LWuVxKTcbMjPaRc8T1a-60" value="" style="edgeStyle=none;html=1;endArrow=block;endFill=0;endSize=12;verticalAlign=bottom;rounded=0;exitX=0.5;exitY=0;exitDx=0;exitDy=0;exitPerimeter=0;" parent="1" source="_LWuVxKTcbMjPaRc8T1a-5" edge="1">
          <mxGeometry width="160" relative="1" as="geometry">
            <mxPoint x="1140" y="290" as="sourcePoint" />
            <mxPoint x="1120" y="260" as="targetPoint" />
          </mxGeometry>
        </mxCell>
        <mxCell id="_LWuVxKTcbMjPaRc8T1a-65" value="&lt;span style=&quot;font-weight: normal;&quot;&gt;Firmenautofahren&lt;/span&gt;" style="shape=ellipse;html=1;strokeWidth=1;fontStyle=1;whiteSpace=wrap;align=center;perimeter=ellipsePerimeter;sketch=1;curveFitting=1;jiggle=2;" parent="1" vertex="1">
          <mxGeometry x="620" y="330" width="120" height="40" as="geometry" />
        </mxCell>
        <mxCell id="_LWuVxKTcbMjPaRc8T1a-66" value="&amp;lt;&amp;lt;include&amp;gt;&amp;gt;" style="edgeStyle=none;html=1;endArrow=open;verticalAlign=bottom;dashed=1;labelBackgroundColor=none;rounded=0;sketch=1;curveFitting=1;jiggle=2;" parent="1" source="_LWuVxKTcbMjPaRc8T1a-70" target="_LWuVxKTcbMjPaRc8T1a-65" edge="1">
          <mxGeometry width="160" relative="1" as="geometry">
            <mxPoint x="809.7979089863575" y="320.9531834938855" as="sourcePoint" />
            <mxPoint x="835" y="370" as="targetPoint" />
          </mxGeometry>
        </mxCell>
        <mxCell id="_LWuVxKTcbMjPaRc8T1a-67" value="&lt;span style=&quot;font-weight: normal;&quot;&gt;Notizen&lt;/span&gt;" style="shape=ellipse;html=1;strokeWidth=1;fontStyle=1;whiteSpace=wrap;align=center;perimeter=ellipsePerimeter;sketch=1;curveFitting=1;jiggle=2;" parent="1" vertex="1">
          <mxGeometry x="855" y="190" width="120" height="40" as="geometry" />
        </mxCell>
        <mxCell id="_LWuVxKTcbMjPaRc8T1a-68" value="&amp;lt;&amp;lt;include&amp;gt;&amp;gt;" style="edgeStyle=none;html=1;endArrow=open;verticalAlign=bottom;dashed=1;labelBackgroundColor=none;rounded=0;sketch=1;curveFitting=1;jiggle=2;" parent="1" source="_LWuVxKTcbMjPaRc8T1a-70" target="_LWuVxKTcbMjPaRc8T1a-67" edge="1">
          <mxGeometry width="160" relative="1" as="geometry">
            <mxPoint x="870.7076584299207" y="290.3210601828491" as="sourcePoint" />
            <mxPoint x="945" y="420" as="targetPoint" />
          </mxGeometry>
        </mxCell>
        <mxCell id="_LWuVxKTcbMjPaRc8T1a-69" style="rounded=0;orthogonalLoop=1;jettySize=auto;html=1;entryX=0.734;entryY=0.921;entryDx=0;entryDy=0;entryPerimeter=0;sketch=1;curveFitting=1;jiggle=2;endArrow=none;endFill=0;" parent="1" source="_LWuVxKTcbMjPaRc8T1a-5" target="_LWuVxKTcbMjPaRc8T1a-67" edge="1">
          <mxGeometry relative="1" as="geometry" />
        </mxCell>
        <mxCell id="_LWuVxKTcbMjPaRc8T1a-70" value="&lt;br&gt;extension point: fotografieren" style="html=1;shape=mxgraph.sysml.useCaseExtPt;whiteSpace=wrap;align=center;sketch=1;curveFitting=1;jiggle=2;" parent="1" vertex="1">
          <mxGeometry x="780" y="284" width="170" height="70" as="geometry" />
        </mxCell>
        <mxCell id="_LWuVxKTcbMjPaRc8T1a-71" value="&lt;span style=&quot;font-weight: normal;&quot;&gt;Arbeit vor Ort&lt;/span&gt;" style="resizable=0;html=1;verticalAlign=middle;align=center;labelBackgroundColor=none;fontStyle=1;" parent="_LWuVxKTcbMjPaRc8T1a-70" connectable="0" vertex="1">
          <mxGeometry x="85" y="14.875000000000002" as="geometry" />
        </mxCell>
        <mxCell id="_LWuVxKTcbMjPaRc8T1a-72" value="Condition: Motive == TRUE (JA)&#xa;extension point: fotografieren" style="shape=note;size=0;spacingLeft=5;align=left;whiteSpace=wrap;sketch=1;curveFitting=1;jiggle=2;" parent="1" vertex="1">
          <mxGeometry x="752.5" y="610" width="205" height="40" as="geometry" />
        </mxCell>
        <mxCell id="_LWuVxKTcbMjPaRc8T1a-73" value="&amp;lt;&amp;lt;extend&amp;gt;&amp;gt;" style="align=right;html=1;verticalAlign=bottom;rounded=0;labelBackgroundColor=none;endArrow=open;endSize=12;dashed=1;exitX=0.5;exitY=0;exitDx=0;exitDy=0;sketch=1;curveFitting=1;jiggle=2;" parent="1" source="_LWuVxKTcbMjPaRc8T1a-75" target="_LWuVxKTcbMjPaRc8T1a-70" edge="1">
          <mxGeometry x="0.5436" y="-46" relative="1" as="geometry">
            <mxPoint x="1038" y="560" as="targetPoint" />
            <mxPoint x="1115.24" y="747.0699999999999" as="sourcePoint" />
            <mxPoint as="offset" />
          </mxGeometry>
        </mxCell>
        <mxCell id="_LWuVxKTcbMjPaRc8T1a-75" value="&lt;span style=&quot;font-weight: normal;&quot;&gt;Fotografieren&lt;/span&gt;" style="shape=ellipse;html=1;strokeWidth=1;fontStyle=1;whiteSpace=wrap;align=center;perimeter=ellipsePerimeter;sketch=1;curveFitting=1;jiggle=2;" parent="1" vertex="1">
          <mxGeometry x="930" y="510" width="100" height="40" as="geometry" />
        </mxCell>
        <mxCell id="_LWuVxKTcbMjPaRc8T1a-76" value="&amp;lt;&amp;lt;extend&amp;gt;&amp;gt;" style="align=right;html=1;verticalAlign=bottom;rounded=0;labelBackgroundColor=none;endArrow=open;endSize=12;dashed=1;sketch=1;curveFitting=1;jiggle=2;" parent="1" source="_LWuVxKTcbMjPaRc8T1a-72" target="_LWuVxKTcbMjPaRc8T1a-75" edge="1">
          <mxGeometry x="0.5436" y="-46" relative="1" as="geometry">
            <mxPoint x="495.5" y="550" as="targetPoint" />
            <mxPoint x="457.5" y="620" as="sourcePoint" />
            <mxPoint as="offset" />
          </mxGeometry>
        </mxCell>
      </root>
    </mxGraphModel>
  </diagram>
</mxfile>
